HIERARCHY
ROOT root
{
	OFFSET 0.000000 0.000000 0.000000
	CHANNELS 6 Xposition Yposition Zposition Zrotation Yrotation Xrotation
	JOINT lhip
	{
		OFFSET 0.058581 -0.082280 -0.017664
		CHANNELS 3 Zrotation Yrotation Xrotation
		JOINT lknee
		{
			OFFSET 0.043451 -0.386469 0.008037
			CHANNELS 3 Zrotation Yrotation Xrotation
			JOINT lankle
			{
				OFFSET -0.014790 -0.426874 -0.037428
				CHANNELS 3 Zrotation Yrotation Xrotation
				JOINT ltoe
				{
					OFFSET 0.041054 -0.060286 0.122042
					CHANNELS 3 Zrotation Yrotation Xrotation
					End Site
					{
						OFFSET 0.000000 0.000000 0.000000
					}
				}
			}
		}
	}
	JOINT rhip
	{
		OFFSET -0.060310 -0.090513 -0.013543
		CHANNELS 3 Zrotation Yrotation Xrotation
		JOINT rknee
		{
			OFFSET -0.043257 -0.383688 -0.004843
			CHANNELS 3 Zrotation Yrotation Xrotation
			JOINT rankle
			{
				OFFSET 0.019056 -0.420046 -0.034562
				CHANNELS 3 Zrotation Yrotation Xrotation
				JOINT rtoe
				{
					OFFSET -0.034840 -0.062106 0.130323
					CHANNELS 3 Zrotation Yrotation Xrotation
					End Site
					{
						OFFSET 0.000000 0.000000 0.000000
					}
				}
			}
		}
	}
	JOINT lowerback
	{
		OFFSET 0.004439 0.124404 -0.038385
		CHANNELS 3 Zrotation Yrotation Xrotation
		JOINT upperback
		{
			OFFSET 0.004488 0.137956 0.026820
			CHANNELS 3 Zrotation Yrotation Xrotation
			JOINT chest
			{
				OFFSET -0.002265 0.056032 0.002855
				CHANNELS 3 Zrotation Yrotation Xrotation
				JOINT lowerneck
				{
					OFFSET -0.013390 0.211636 -0.033468
					CHANNELS 3 Zrotation Yrotation Xrotation
					JOINT upperneck
					{
						OFFSET 0.010113 0.088937 0.050410
						CHANNELS 3 Zrotation Yrotation Xrotation
						End Site
						{
							OFFSET 0.000000 0.000000 0.000000
						}
					}
				}
				JOINT lclavicle
				{
					OFFSET 0.071702 0.114000 -0.018898
					CHANNELS 3 Zrotation Yrotation Xrotation
					JOINT lshoulder
					{
						OFFSET 0.122921 0.045205 -0.019046
						CHANNELS 3 Zrotation Yrotation Xrotation
						JOINT lelbow
						{
							OFFSET 0.255332 -0.015649 -0.022946
							CHANNELS 3 Zrotation Yrotation Xrotation
							JOINT lwrist
							{
								OFFSET 0.265709 0.012698 -0.007375
								CHANNELS 3 Zrotation Yrotation Xrotation
								End Site
								{
									OFFSET 0.000000 0.000000 0.000000
								}
							}
						}
					}
				}
				JOINT rclavicle
				{
					OFFSET -0.082954 0.112472 -0.023707
					CHANNELS 3 Zrotation Yrotation Xrotation
					JOINT rshoulder
					{
						OFFSET -0.113228 0.046853 -0.008472
						CHANNELS 3 Zrotation Yrotation Xrotation
						JOINT relbow
						{
							OFFSET -0.260127 -0.014369 -0.031269
							CHANNELS 3 Zrotation Yrotation Xrotation
							JOINT rwrist
							{
								OFFSET -0.269108 0.006794 -0.006027
								CHANNELS 3 Zrotation Yrotation Xrotation
								End Site
								{
									OFFSET 0.000000 0.000000 0.000000
								}
							}
						}
					}
				}
			}
		}
	}
}
MOTION
Frames: 12
Frame Time: 0.033333
0.233927 1.725117 0.982479 -91.940258 0.561431 89.577857 1.090871 0.188014 -6.499448 -7.258899 -9.453967 12.250861 2.661602 10.990807 -15.936761 0.000000 -0.000000 0.000000 2.184920 0.236855 -4.338420 6.360392 0.110588 6.309804 1.255243 -8.312633 -11.885930 0.000000 -0.000000 0.000000 -0.393963 1.967003 11.138926 1.370000 -2.121907 -1.823206 1.258538 0.326776 -2.549671 3.656372 12.740081 0.645367 6.671278 15.979942 8.088849 -25.384070 0.610057 -3.950329 -52.054523 -4.630723 12.808655 9.730605 -21.149479 -1.187069 1.333261 -5.854094 0.645907 24.097834 1.612671 -1.918320 50.441755 3.514784 13.472299 -9.744269 23.438298 -4.638384 2.263454 7.372897 -0.083754 
0.232260 1.723436 0.983411 -91.480797 0.766180 89.556718 1.647844 0.308858 -5.400926 -7.615714 -9.258719 10.349597 2.303180 10.371265 -15.172087 0.000000 -0.000000 0.000000 2.031879 -0.229552 -2.144240 6.621164 0.478248 2.642924 1.672347 -7.994883 -10.466410 0.000000 -0.000000 0.000000 -0.618714 2.087028 10.479099 1.306761 -2.147363 -1.661352 1.431303 0.142467 -2.759061 3.833252 12.509639 0.706819 6.380948 15.249709 7.494804 -25.802764 0.928860 -3.666564 -51.721033 -5.012223 12.430359 9.686294 -20.778732 -0.406486 0.637286 -5.922753 0.613267 24.372722 1.058673 -1.962334 50.765953 3.872240 13.223450 -10.162716 23.352343 -4.957076 2.166845 7.085293 -0.700754 
0.232129 1.722348 0.983870 -91.119660 0.809650 89.775524 1.903097 0.091838 -5.120600 -7.940506 -9.206349 9.316578 2.146886 10.003019 -14.850366 0.000000 -0.000000 0.000000 1.922203 -0.929355 -1.768829 6.700625 0.751450 1.593922 1.798887 -7.731788 -10.044435 0.000000 -0.000000 0.000000 -0.846796 2.252089 9.893758 1.158712 -2.192714 -1.559704 1.381981 0.119300 -3.095617 3.724310 12.348144 0.623791 6.135739 14.755290 6.772225 -25.518269 0.920579 -3.573888 -51.666621 -5.100024 12.351505 9.900958 -20.551431 -0.676490 0.707199 -5.735388 0.265678 24.323459 1.033778 -1.734871 51.354593 3.977130 12.941810 -10.267591 23.369731 -5.540295 2.033892 6.807029 -1.457979 
0.232695 1.719858 0.984218 -91.178381 0.679849 90.152093 1.576209 -0.146118 -3.623164 -7.435209 -9.710390 5.502586 2.320034 10.333882 -13.762369 0.000000 -0.000000 0.000000 1.774947 -1.355257 -3.185886 6.505516 0.602134 3.251817 1.991561 -7.494918 -10.285854 0.000000 -0.000000 0.000000 -0.823145 2.332326 9.196350 0.808184 -1.834271 -1.142106 0.910800 0.341337 -3.619333 3.244372 12.021361 -0.214451 5.776256 14.150110 6.250329 -25.596391 0.662452 -3.903653 -50.920820 -4.928037 12.392322 10.840801 -20.384229 -2.500562 1.660220 -6.061498 1.111501 24.413889 1.526147 -1.701375 51.440862 3.762785 13.309133 -10.029708 23.738590 -5.562684 1.891443 7.176582 -1.220135 
0.233047 1.718985 0.984346 -91.357900 0.647240 90.199657 1.283242 -0.064528 -2.895805 -6.823728 -9.951026 3.970445 2.300900 10.488272 -13.388737 0.000000 -0.000000 0.000000 1.754262 -1.067984 -3.611201 6.406317 0.397264 3.806039 2.032604 -7.524317 -10.377519 0.000000 -0.000000 0.000000 -0.774145 2.244533 9.098724 0.705550 -1.640614 -1.063441 0.776082 0.493065 -3.681589 3.006354 12.069455 -0.364831 5.595133 14.020003 5.902358 -25.413952 0.636602 -4.108221 -50.961706 -4.788336 12.367490 11.115210 -20.495911 -3.195741 1.555265 -6.239414 1.062776 24.367051 1.763249 -1.674532 51.356824 3.857333 13.482831 -9.873529 23.850188 -5.169815 2.116110 7.302925 -0.632777 
0.233662 1.717451 0.984542 -91.819463 0.592180 90.182809 0.994021 0.760540 -1.426173 -5.982190 -10.523196 1.212630 1.923387 10.340184 -12.668541 0.000000 -0.000000 0.000000 1.585436 -0.334068 -4.172441 6.362582 0.044657 4.650497 2.208497 -7.369170 -10.477231 0.000000 -0.000000 0.000000 -0.649178 1.800838 9.318474 0.455997 -1.238936 -1.283143 0.553964 0.951578 -3.774043 2.482592 11.996318 -0.461434 5.252737 14.309935 5.419019 -25.581732 0.638407 -4.382776 -50.404713 -4.601740 12.123773 12.108428 -20.388652 -4.100256 4.083957 -7.089311 2.048887 24.231049 2.211860 -1.552953 51.137084 4.108842 13.864170 -9.462494 24.225230 -4.225186 1.350568 7.687991 0.264241 
0.234697 1.716700 0.984779 -92.155747 0.610699 90.219582 1.190514 1.520931 -0.383495 -5.893889 -10.943565 -0.878142 1.718499 10.252531 -12.093409 0.000000 -0.000000 0.000000 1.511275 -0.020461 -4.510794 6.428339 0.058290 5.015480 2.404770 -7.219321 -10.535423 0.000000 -0.000000 0.000000 -0.729839 1.492516 9.250976 0.472973 -1.107687 -1.243745 0.549115 1.229455 -3.807227 2.117326 12.294094 -0.478224 4.945330 14.399251 5.243264 -25.363688 0.684582 -4.171981 -50.249612 -4.115810 12.034992 11.778924 -20.860181 -3.728706 2.534397 -6.329880 1.615133 24.171073 2.787248 -1.409307 50.867908 4.431675 14.058140 -9.543955 24.810188 -4.173813 1.945281 7.500085 0.196948 
0.235626 1.716204 0.984325 -92.197759 0.576594 90.138211 1.262948 1.871335 -0.066090 -6.005414 -11.206262 -1.418149 1.820709 10.095657 -12.006863 0.000000 -0.000000 0.000000 1.371434 -0.221133 -4.404915 6.517567 -0.084885 4.851669 2.366067 -7.072015 -10.620860 0.000000 -0.000000 0.000000 -0.908516 1.355414 9.388023 0.545580 -1.130431 -1.209745 0.736102 1.217842 -4.010070 1.943381 12.137320 -0.282700 4.429093 14.669521 5.726548 -25.264854 0.822068 -3.738003 -50.238307 -4.052251 11.901791 11.720979 -20.924644 -3.691912 3.242123 -6.250745 1.167670 24.010919 2.869591 -1.447210 50.826663 5.020962 14.085063 -9.665017 25.166825 -4.560971 1.561974 7.554165 -0.196094 
0.236402 1.716048 0.983405 -92.082306 0.611088 90.121475 1.315770 1.725513 0.095004 -6.039578 -10.987991 -1.844551 1.912210 9.929605 -11.953223 0.000000 -0.000000 0.000000 1.355703 -0.488555 -4.070333 6.601932 -0.128785 4.195064 2.279902 -6.973798 -10.686230 0.000000 -0.000000 0.000000 -0.806665 1.278314 9.580402 0.483234 -1.301240 -1.301709 0.890109 0.672114 -3.969821 1.890325 12.349828 -0.661785 4.424504 15.016785 6.107300 -25.632472 0.661078 -2.391807 -49.709692 -3.711266 11.310218 12.080710 -21.881039 -3.687636 3.720685 -6.111544 0.282865 24.277340 3.155163 -1.495001 50.394331 5.547919 13.994997 -9.849609 25.872132 -4.803850 1.325090 7.535634 -0.836649 
0.237361 1.716584 0.982349 -91.997237 0.729512 90.422487 1.399321 1.377102 -0.341511 -5.943738 -10.674216 -1.884391 1.973367 9.878521 -11.897063 0.000000 -0.000000 0.000000 1.601630 -0.801520 -4.342167 6.555431 -0.108400 3.866623 2.142311 -7.002228 -10.695429 0.000000 -0.000000 0.000000 -0.875730 1.333320 9.348014 0.659193 -1.504901 -1.100897 1.060178 0.345128 -4.161665 1.789324 12.672815 -0.763673 4.393681 15.168698 6.225832 -25.777951 0.482601 -1.877831 -49.389026 -3.499393 11.358168 11.836956 -21.927979 -3.465129 3.443992 -5.717183 0.156510 24.542502 3.124782 -1.665945 50.152477 5.889213 13.805919 -10.182365 26.463697 -5.316646 1.462713 7.478770 -0.982024 
0.238565 1.716455 0.981737 -92.113734 0.745587 90.738301 1.250496 1.209853 -1.039440 -5.843245 -10.525890 -1.474219 2.236597 10.052563 -11.831984 0.000000 -0.000000 0.000000 1.634254 -0.599576 -4.741730 6.517140 -0.106795 3.739642 1.990421 -7.070768 -10.711558 0.000000 -0.000000 0.000000 -0.805725 1.359249 9.131652 0.738601 -1.678778 -1.070330 0.979717 0.432822 -4.161907 1.730084 12.844827 -0.838581 4.459576 15.054147 6.193768 -25.382548 0.516959 -2.359442 -49.857137 -3.442092 11.912662 11.616239 -21.152610 -3.186368 2.534008 -5.699656 0.436442 24.641772 2.763284 -1.797860 50.358145 6.167505 13.539833 -10.636914 26.838157 -5.954292 1.649302 7.583958 -1.070394 
0.239307 1.716471 0.981652 -92.456593 0.806136 90.684142 1.287510 1.296607 -1.317304 -6.130439 -10.415967 -0.947450 2.674966 10.296125 -11.901067 0.000000 -0.000000 0.000000 1.638617 -0.443722 -4.683549 6.610567 0.085491 3.620637 2.121431 -7.007325 -10.572956 0.000000 -0.000000 0.000000 -0.706666 1.468117 9.355322 0.727860 -1.558447 -1.280037 1.040631 0.389443 -4.032839 1.642002 12.790180 -0.730838 4.397547 15.197892 6.149461 -25.300543 0.377705 -2.095536 -50.159563 -3.502867 11.909878 11.671203 -21.053960 -3.036006 2.337515 -5.686211 -0.083888 24.462099 2.635134 -1.588162 50.659254 6.250116 13.408447 -10.844836 26.935852 -6.317111 1.590469 7.549761 -1.791777 
